<svg xmlns="http://www.w3.org/2000/svg" viewBox="0 0 48 48" role="img" aria-labelledby="title">
  <title id="title">Miyo logo mark</title>
  <path fill="#ff6f9d" d="M23.2 5.4C13.1 6.3 6.5 14.8 8.1 25.4c1.4 9.1 8.3 15.6 15.9 17.2-1.4-10-1.7-27.1-.8-37.2Z"/>
  <path fill="#4bc3c7" d="M24.8 5.4c10.1.9 16.7 9.4 15.1 20-1.4 9.1-8.3 15.6-15.9 17.2 1.4-10 1.7-27.1.8-37.2Z"/>
  <path fill="#8b7cf6" d="M24 10 31.4 19 24 36l-7.4-17L24 10Z"/>
  <path fill="#f5f1ea" d="M19.2 20.4c1.3-1.3 2.9-1.9 4.8-1.9s3.5.6 4.8 1.9L27 23.2c-.9-.7-1.9-1.1-3-1.1s-2.1.4-3 1.1l-1.8-2.8Z"/>
</svg>
